<?xml version="1.0" encoding="UTF-8" standalone="no"?>
<!-- Created with Inkscape (http://www.inkscape.org/) -->

<svg
   xmlns:osb="http://www.openswatchbook.org/uri/2009/osb"
   xmlns:dc="http://purl.org/dc/elements/1.1/"
   xmlns:cc="http://creativecommons.org/ns#"
   xmlns:rdf="http://www.w3.org/1999/02/22-rdf-syntax-ns#"
   xmlns:svg="http://www.w3.org/2000/svg"
   xmlns="http://www.w3.org/2000/svg"
   xmlns:sodipodi="http://sodipodi.sourceforge.net/DTD/sodipodi-0.dtd"
   xmlns:inkscape="http://www.inkscape.org/namespaces/inkscape"
   sodipodi:docname="feder-energie.svg"
   inkscape:version="0.48.4 r9939"
   version="1.1"
   id="svg2"
   height="297mm"
   width="210mm">
  <sodipodi:namedview
     id="base"
     pagecolor="#ffffff"
     bordercolor="#666666"
     borderopacity="1.0"
     inkscape:pageopacity="0.0"
     inkscape:pageshadow="2"
     inkscape:zoom="1.979899"
     inkscape:cx="276.48543"
     inkscape:cy="387.82648"
     inkscape:document-units="px"
     inkscape:current-layer="layer1"
     showgrid="true"
     inkscape:window-width="1278"
     inkscape:window-height="779"
     inkscape:window-x="0"
     inkscape:window-y="19"
     inkscape:window-maximized="1"
     inkscape:snap-bbox="true"
     inkscape:object-nodes="true"
     inkscape:snap-bbox-midpoints="true"
     inkscape:snap-nodes="true"
     inkscape:object-paths="true"
     inkscape:snap-intersection-paths="true"
     inkscape:snap-smooth-nodes="true"
     inkscape:snap-midpoints="true"
     inkscape:snap-object-midpoints="true">
    <inkscape:grid
       spacingy="1mm"
       spacingx="1mm"
       units="mm"
       snapvisiblegridlinesonly="true"
       enabled="true"
       visible="true"
       empspacing="5"
       id="grid2985"
       type="xygrid" />
  </sodipodi:namedview>
  <defs
     id="defs4">
    <linearGradient
       osb:paint="solid"
       id="linearGradient7099">
      <stop
         id="stop7101"
         offset="0"
         style="stop-color:#000000;stop-opacity:1;" />
    </linearGradient>
    <marker
       style="overflow:visible"
       id="TriangleOutM"
       refX="0.0"
       refY="0.0"
       orient="auto"
       inkscape:stockid="TriangleOutM">
      <path
         transform="scale(0.4)"
         style="fill-rule:evenodd;stroke:#000000;stroke-width:1.0pt"
         d="M 5.77,0.0 L -2.88,5.0 L -2.88,-5.0 L 5.77,0.0 z "
         id="path3958" />
    </marker>
    <marker
       style="overflow:visible"
       id="TriangleInM"
       refX="0.0"
       refY="0.0"
       orient="auto"
       inkscape:stockid="TriangleInM">
      <path
         transform="scale(-0.4)"
         style="fill-rule:evenodd;stroke:#000000;stroke-width:1.0pt"
         d="M 5.77,0.0 L -2.88,5.0 L -2.88,-5.0 L 5.77,0.0 z "
         id="path3949" />
    </marker>
    <marker
       style="overflow:visible"
       id="TriangleInM-8"
       refX="0"
       refY="0"
       orient="auto"
       inkscape:stockid="TriangleInM">
      <path
         transform="scale(-0.4,-0.4)"
         style="fill-rule:evenodd;stroke:#000000;stroke-width:1pt"
         d="m 5.77,0 -8.65,5 0,-10 8.65,5 z"
         id="path3949-8"
         inkscape:connector-curvature="0" />
    </marker>
    <marker
       style="overflow:visible"
       id="TriangleOutM-7"
       refX="0"
       refY="0"
       orient="auto"
       inkscape:stockid="TriangleOutM">
      <path
         transform="scale(0.4,0.4)"
         style="fill-rule:evenodd;stroke:#000000;stroke-width:1pt"
         d="m 5.77,0 -8.65,5 0,-10 8.65,5 z"
         id="path3958-0"
         inkscape:connector-curvature="0" />
    </marker>
    <marker
       style="overflow:visible"
       id="TriangleOutM-7-0"
       refX="0"
       refY="0"
       orient="auto"
       inkscape:stockid="TriangleOutM">
      <path
         transform="scale(0.4,0.4)"
         style="fill-rule:evenodd;stroke:#000000;stroke-width:1pt"
         d="m 5.77,0 -8.65,5 0,-10 8.65,5 z"
         id="path3958-0-9"
         inkscape:connector-curvature="0" />
    </marker>
  </defs>
  <metadata
     id="metadata7">
    <rdf:RDF>
      <cc:Work
         rdf:about="">
        <dc:format>image/svg+xml</dc:format>
        <dc:type
           rdf:resource="http://purl.org/dc/dcmitype/StillImage" />
        <dc:title />
      </cc:Work>
    </rdf:RDF>
  </metadata>
  <g
     id="layer1"
     inkscape:groupmode="layer"
     inkscape:label="Ebene 1">
    <path
       inkscape:connector-curvature="0"
       id="path5659"
       d="m 194.88189,698.03147 141.73229,-70.86614 0,70.86614 z"
       style="fill:#c0c0c0;fill-opacity:1;stroke:none" />
    <path
       style="fill:none;stroke:#000000;stroke-width:1px;stroke-linecap:butt;stroke-linejoin:miter;stroke-opacity:1;marker-end:url(#TriangleOutM-7)"
       d="m 194.88189,708.66138 0,-99.21261"
       id="path5055"
       inkscape:connector-curvature="0" />
    <path
       style="fill:none;stroke:#000000;stroke-width:1px;stroke-linecap:butt;stroke-linejoin:miter;stroke-opacity:1;marker-end:url(#TriangleOutM-7)"
       d="m 184.25197,698.03147 170.07874,0"
       id="path5055-1"
       inkscape:connector-curvature="0" />
    <path
       sodipodi:nodetypes="ccccc"
       inkscape:connector-curvature="0"
       id="path5465"
       d="m 195.38188,697.94425 35.30807,-17.69472 35.30808,-17.69474 35.30807,-17.69472 35.30807,-17.69474"
       style="fill:none;stroke:#000000;stroke-width:1px;stroke-linecap:butt;stroke-linejoin:miter;stroke-opacity:1" />
    <g
       id="g3946"
       transform="matrix(0.3,0,0,0.3,23.22993,575.35155)">
      <g
         word-spacing="normal"
         letter-spacing="normal"
         font-size-adjust="none"
         font-stretch="normal"
         font-weight="normal"
         font-variant="normal"
         font-style="normal"
         stroke-miterlimit="10.433"
         xml:space="preserve"
         transform="matrix(1.0629921,0,0,-1.0629921,-186.02362,789.27165)"
         id="g3948"
         style="font-style:normal;font-variant:normal;font-weight:normal;font-stretch:normal;letter-spacing:normal;word-spacing:normal;text-anchor:start;fill:none;stroke:#000000;stroke-width:3.33333325;stroke-linecap:butt;stroke-linejoin:miter;stroke-miterlimit:10.43299961;stroke-opacity:1;stroke-dasharray:none;stroke-dashoffset:0"><path
           id="path3950"
           d="m 1253.4,376.08 -0.1,-0.06 0,-0.07 -0.1,-0.07 -0.1,-0.07 -0.1,-0.08 -0.1,-0.08 -0.1,-0.09 -0.1,-0.08 -0.1,-0.09 -0.1,-0.09 -0.2,-0.19 -0.1,-0.2 -0.2,-0.2 -0.1,-0.11 -0.1,-0.1 -0.1,-0.1 -0.1,-0.1 -0.1,-0.11 0,-0.1 -0.1,-0.1 -0.1,-0.1 0,-0.1 -0.1,-0.1 0,-0.09 -0.1,-0.1 0,-0.09 0,-0.09 0,-0.09 0,-0.09 c 0,-0.5 0.5,-1 1,-1 0.4,0 0.7,0.36 0.9,0.66 0.6,0.75 1.7,2.14 3.9,3.24 0.4,0.2 0.9,0.45 0.9,1.04 0,0.5 -0.4,0.75 -0.7,1 -1.1,0.75 -1.7,1.64 -2.1,2.83 -0.1,0.45 -0.3,1.11 -0.9,1.11 -0.8,0 -1,-0.66 -1,-1.05 0,-0.25 0.3,-1.84 1.1,-2.89 h -16.8 c -0.8,0 -1.7,0 -1.7,-1 0,-1 0.9,-1 1.7,-1 z"
           inkscape:connector-curvature="0"
           style="fill:#000000;stroke-width:0" /><path
           id="path3952"
           d="m 1247.9,365.08 -0.1,-0.01 -0.1,-0.01 -0.2,-0.02 -0.1,-0.03 -0.1,-0.03 -0.1,-0.03 -0.1,-0.05 -0.1,-0.04 -0.2,-0.05 -0.1,-0.06 -0.1,-0.06 -0.1,-0.06 0,-0.07 -0.1,-0.07 -0.1,-0.07 -0.1,-0.08 -0.1,-0.08 -0.1,-0.08 0,-0.08 -0.1,-0.09 0,-0.09 -0.1,-0.09 0,-0.1 -0.1,-0.09 0,-0.1 -0.1,-0.1 0,-0.1 0,-0.1 0,-0.1 -0.1,-0.1 0,-0.11 0,-0.1 c 0,-0.7 0.5,-1.44 1.6,-1.44 1.1,0 2.3,0.85 2.3,2.79 0,2.25 -2.2,4.28 -6,4.28 -6.5,0 -8.4,-5.08 -8.4,-7.27 0,-3.89 3.7,-4.64 5.1,-4.94 2.6,-0.5 5.2,-1.04 5.2,-3.78 0,-1.29 -1.1,-5.48 -7.1,-5.48 -0.7,0 -4.5,0 -5.7,2.64 1.9,-0.25 3.2,1.25 3.2,2.64 0,1.14 -0.8,1.75 -1.9,1.75 -1.3,0 -2.8,-1.05 -2.8,-3.3 0,-2.84 2.9,-4.83 7.2,-4.83 8,0 10,6.04 10,8.27 0,1.8 -1,3.05 -1.6,3.64 -1.3,1.39 -2.8,1.64 -5,2.09 -1.8,0.4 -3.7,0.75 -3.7,2.99 0,1.45 1.2,4.48 5.5,4.48 1.3,0 3.8,-0.34 4.5,-2.28 z"
           inkscape:connector-curvature="0"
           style="fill:#000000;stroke-width:0" /></g>    </g>
    <g
       id="g4023"
       transform="matrix(0.3,0,0,0.3,-140.91731,475.09297)">
      <g
         id="content"
         transform="matrix(1.0629921,0,0,-1.0629921,-186.02362,789.27165)"
         xml:space="preserve"
         stroke-miterlimit="10.433"
         font-style="normal"
         font-variant="normal"
         font-weight="normal"
         font-stretch="normal"
         font-size-adjust="none"
         letter-spacing="normal"
         word-spacing="normal"
         style="font-style:normal;font-variant:normal;font-weight:normal;font-stretch:normal;letter-spacing:normal;word-spacing:normal;text-anchor:start;fill:none;stroke:#000000;stroke-width:3.33333325;stroke-linecap:butt;stroke-linejoin:miter;stroke-miterlimit:10.43299961;stroke-opacity:1;stroke-dasharray:none;stroke-dashoffset:0"><path
           d="m 1202.6,388.68 0,-0.06 -0.1,-0.07 -0.1,-0.07 -0.1,-0.07 -0.1,-0.08 0,-0.08 -0.1,-0.09 -0.1,-0.08 -0.1,-0.09 -0.1,-0.1 -0.2,-0.19 -0.2,-0.19 -0.2,-0.21 -0.1,-0.1 -0.1,-0.1 -0.1,-0.1 -0.1,-0.11 0,-0.1 -0.1,-0.1 -0.1,-0.1 0,-0.1 -0.1,-0.1 -0.1,-0.1 0,-0.1 0,-0.09 -0.1,-0.09 0,-0.1 0,-0.08 0,-0.09 c 0,-0.5 0.5,-1 1,-1 0.4,0 0.7,0.36 0.9,0.66 0.6,0.75 1.8,2.14 4,3.23 0.3,0.21 0.8,0.46 0.8,1.05 0,0.5 -0.3,0.75 -0.7,1 -1.1,0.75 -1.6,1.64 -2,2.83 -0.1,0.45 -0.3,1.11 -1,1.11 -0.7,0 -1,-0.66 -1,-1.05 0,-0.25 0.4,-1.84 1.2,-2.89 h -16.8 c -0.9,0 -1.8,0 -1.8,-1 0,-1 0.9,-1 1.8,-1 z"
           id="path4026"
           inkscape:connector-curvature="0"
           style="fill:#000000;stroke-width:0" /><path
           d="m 1183.5,362.63 h 4.9 c 3.7,0 4.1,-0.8 4.1,-2.24 0,-0.35 0,-0.95 -0.3,-2.43 -0.1,-0.25 -0.2,-0.46 -0.2,-0.57 0,-0.39 0.3,-0.59 0.6,-0.59 0.5,0 0.5,0.16 0.7,1.05 l 2.8,10.81 c 0.1,0.55 0.1,0.66 0.1,0.8 0,0.09 -0.1,0.54 -0.6,0.54 -0.5,0 -0.5,-0.25 -0.7,-1.04 -1.1,-3.88 -2.2,-4.78 -6.4,-4.78 h -4.6 l 3.2,12.65 c 0.5,1.75 0.5,1.94 2.7,1.94 h 6.6 c 6.1,0 7.3,-1.64 7.3,-5.47 0,-1.16 0,-1.34 -0.2,-2.7 -0.1,-0.64 -0.1,-0.74 -0.1,-0.89 0,-0.25 0.2,-0.6 0.6,-0.6 0.6,0 0.6,0.3 0.7,1.25 l 1,8.61 c 0.2,1.35 -0.1,1.35 -1.3,1.35 H 1180 c -1,0 -1.5,0 -1.5,-1 0,-0.55 0.4,-0.55 1.3,-0.55 1.9,0 3.3,0 3.3,-0.89 0,-0.2 0,-0.3 -0.3,-1.2 l -6.5,-26.35 c -0.5,-1.95 -0.6,-2.34 -4.6,-2.34 -0.8,0 -1.4,0 -1.4,-0.95 0,-0.6 0.6,-0.6 0.8,-0.6 1.4,0 5.1,0.16 6.6,0.16 1.6,0 5.7,-0.16 7.4,-0.16 0.4,0 1,0 1,0.95 0,0.4 -0.3,0.49 -0.3,0.55 -0.1,0.05 -0.2,0.05 -1.4,0.05 -1.1,0 -1.3,0 -2.6,0.09 -1.4,0.16 -1.6,0.36 -1.6,1 0,0.1 0,0.41 0.2,1.14 z"
           id="path4028"
           inkscape:connector-curvature="0"
           style="fill:#000000;stroke-width:0" /><path
           d="m 1212.4,350.1 h 3.7 c 2.7,0 3.1,-0.42 3.1,-1.56 0,-0.54 0,-0.6 -0.2,-1.58 -0.1,-0.21 -0.1,-0.32 -0.1,-0.41 0,-0.36 0.2,-0.53 0.6,-0.53 0.4,0 0.5,0.17 0.6,0.8 l 1.9,7.39 c 0,0.11 0.2,0.62 0.2,0.7 0,0.34 -0.3,0.52 -0.6,0.52 -0.5,0 -0.6,-0.21 -0.7,-0.83 -0.7,-2.72 -1.7,-3.25 -4.7,-3.25 h -3.5 l 2.2,8.75 c 0.3,1.08 0.3,1.19 1.8,1.19 h 5.3 c 4.7,0 5.5,-1.11 5.5,-4.02 0,-1.14 -0.1,-1.88 -0.1,-2.16 0,-0.28 0.1,-0.59 0.6,-0.59 0.5,0 0.5,0.31 0.6,0.91 l 0.6,6.06 c 0.1,1.05 -0.1,1.05 -1,1.05 h -18.6 c -0.7,0 -1.1,0 -1.1,-0.77 0,-0.48 0.4,-0.48 1.1,-0.48 0.1,0 0.7,0 1.3,-0.08 0.8,-0.07 0.8,-0.13 0.8,-0.49 0,-0.23 -0.1,-0.59 -0.1,-0.76 l -4.6,-18.22 c -0.3,-1.36 -0.3,-1.61 -3.1,-1.61 -0.6,0 -1,0 -1,-0.74 0,-0.34 0.2,-0.51 0.5,-0.51 1,0 3.6,0.14 4.6,0.14 l 2.7,-0.03 c 0.9,0 1.9,-0.11 2.8,-0.11 0.2,0 0.7,0 0.7,0.76 0,0.49 -0.4,0.49 -1.2,0.49 -0.1,0 -0.9,0 -1.8,0.08 -0.7,0.06 -1.1,0.09 -1.1,0.59 0,0.14 0,0.24 0.1,0.63 z"
           id="path4030"
           inkscape:connector-curvature="0"
           style="fill:#000000;stroke-width:0" /><path
           d="m 1239,346.82 0.1,0 0.1,0 0.1,0 0.2,0 0.1,0 0.1,0.01 0.2,0 0.1,0.01 0.2,0.01 0.2,0 0.1,0.01 0.2,0.02 0.2,0.01 0.2,0.01 0.4,0.04 0.4,0.04 0.4,0.05 0.4,0.06 0.4,0.07 0.4,0.08 0.2,0.04 0.2,0.05 0.2,0.05 0.2,0.05 0.1,0.06 0.2,0.06 c 2.6,0.91 3.1,2.58 3.1,3.63 0,1.92 -1.9,3.06 -4.4,3.06 v -0.97 c 1.6,0 2.9,-0.77 2.9,-2.09 0,-3.38 -5.9,-3.38 -7.4,-3.38 h -1.7 c 1.4,5.05 5.3,5.47 6.2,5.47 v 0.97 c -4.1,0 -9.8,-3.2 -9.8,-9.16 0,-3.51 2.2,-6.54 6.3,-6.54 5.9,0 8.6,3.43 8.6,3.93 0,0.21 -0.3,0.6 -0.6,0.6 -0.1,0 -0.2,-0.08 -0.5,-0.36 -2.7,-3.21 -6.8,-3.21 -7.4,-3.21 -2.1,0 -3.5,1.39 -3.5,4.22 0,0.49 0,1.19 0.4,3.1 z"
           id="path4032"
           inkscape:connector-curvature="0"
           style="fill:#000000;stroke-width:0" /><path
           d="m 1269.9,362.02 0,0 0,0.01 0,0 0,0.01 0,0 0,0.01 0,0 0,0.01 0.1,0.01 0,0 0,0.02 0,0.02 0,0.02 0,0.02 0,0.02 0,0.02 0,0.02 0,0.02 0,0.03 0,0.04 0,0.03 0,0.02 0,0.02 0,0.03 0,0.02 0,0.02 0,0.02 0.1,0.02 0,0.01 0,0.02 0,0.01 0,0 0,0.01 0,0.01 0,0 0,0.01 0,0 0,0.01 0,0 0,0 0,0 0,0.01 c 0,0.18 -0.2,0.5 -0.6,0.5 -0.7,0 -3.6,-0.28 -4.4,-0.36 -0.3,-0.03 -0.8,-0.07 -0.8,-0.8 0,-0.48 0.5,-0.48 0.9,-0.48 1.7,0 1.7,-0.25 1.7,-0.54 0,-0.23 -0.1,-0.45 -0.2,-0.76 l -2,-7.94 c -0.7,1.14 -1.9,2.05 -3.6,2.05 v -0.97 c 2.5,0 3.1,-2.64 3.1,-3.03 0,-0.14 0,-0.39 -0.1,-0.49 l -1.6,-6.51 c -0.2,-0.99 -1,-1.67 -1.8,-2.35 -0.3,-0.26 -1.7,-1.39 -3.2,-1.39 -1.3,0 -2.5,0.91 -2.5,3.38 0,1.86 1,5.69 1.8,7.08 1.6,2.79 3.4,3.31 4.3,3.31 v 0.97 c -4.4,0 -8.9,-4.91 -8.9,-9.92 0,-3.38 2.2,-5.78 5.2,-5.78 1.9,0 3.6,1.07 5,2.43 0.6,-2.09 2.7,-2.43 3.6,-2.43 1.2,0 2.1,0.76 2.7,1.84 0.8,1.36 1.2,3.34 1.2,3.48 0,0.46 -0.4,0.46 -0.5,0.46 -0.5,0 -0.6,-0.14 -0.8,-1.08 -0.4,-1.67 -1.1,-3.74 -2.5,-3.74 -0.9,0 -1.2,0.77 -1.2,1.71 0,0.67 0.1,0.98 0.2,1.43 z"
           id="path4034"
           inkscape:connector-curvature="0"
           style="fill:#000000;stroke-width:0" /><path
           d="m 1278.6,346.82 0.1,0 0.1,0 0.1,0 0.1,0 0.2,0 0.1,0.01 0.2,0 0.1,0.01 0.2,0.01 0.2,0 0.1,0.01 0.2,0.02 0.2,0.01 0.2,0.01 0.4,0.04 0.4,0.04 0.4,0.05 0.4,0.06 0.4,0.07 0.4,0.08 0.2,0.04 0.2,0.05 0.2,0.05 0.1,0.05 0.2,0.06 0.2,0.06 c 2.6,0.91 3.1,2.58 3.1,3.63 0,1.92 -1.9,3.06 -4.4,3.06 v -0.97 c 1.6,0 2.9,-0.77 2.9,-2.09 0,-3.38 -5.9,-3.38 -7.4,-3.38 h -1.7 c 1.4,5.05 5.3,5.47 6.2,5.47 v 0.97 c -4.1,0 -9.8,-3.2 -9.8,-9.16 0,-3.51 2.2,-6.54 6.3,-6.54 5.9,0 8.6,3.43 8.6,3.93 0,0.21 -0.3,0.6 -0.6,0.6 -0.2,0 -0.2,-0.08 -0.5,-0.36 -2.7,-3.21 -6.8,-3.21 -7.4,-3.21 -2.1,0 -3.5,1.39 -3.5,4.22 0,0.49 0,1.19 0.4,3.1 z"
           id="path4036"
           inkscape:connector-curvature="0"
           style="fill:#000000;stroke-width:0" /><path
           d="m 1297.8,345.91 0,0.01 0,0.02 0,0.02 0,0.02 0,0.03 0,0.03 0.1,0.04 0,0.04 0,0.04 0,0.04 0,0.05 0,0.05 0,0.06 0,0.05 0.1,0.12 0,0.13 0,0.13 0.1,0.14 0,0.15 0,0.15 0.1,0.15 0.1,0.31 0,0.31 0.1,0.16 0,0.15 0.1,0.14 0,0.14 0,0.13 0.1,0.13 0,0.11 0,0.06 0,0.05 0,0.05 0,0.05 0.1,0.04 0,0.04 0,0.04 0,0.03 0,0.03 0,0.03 0,0.02 0,0.02 0,0.01 0,0.01 c 0.1,0.28 1.1,2.02 2.2,2.86 0.4,0.27 1.3,0.97 2.8,0.97 0.4,0 1.3,-0.03 2,-0.48 -1.2,-0.32 -1.6,-1.3 -1.6,-1.93 0,-0.76 0.6,-1.28 1.4,-1.28 0.8,0 2,0.66 2,2.13 0,1.81 -1.9,2.53 -3.7,2.53 -1.8,0 -3.4,-0.72 -4.9,-2.47 -0.7,2.12 -2.8,2.47 -3.6,2.47 -1.3,0 -2.2,-0.8 -2.7,-1.77 -0.8,-1.36 -1.3,-3.39 -1.3,-3.56 0,-0.45 0.5,-0.45 0.6,-0.45 0.4,0 0.5,0.11 0.7,1.04 0.6,2.13 1.2,3.77 2.6,3.77 0.9,0 1.1,-0.77 1.1,-1.7 0,-0.68 -0.3,-1.96 -0.5,-2.89 -0.3,-0.96 -0.6,-2.38 -0.8,-3.14 l -1.1,-4.47 c -0.2,-0.44 -0.4,-1.32 -0.4,-1.43 0,-0.76 0.7,-1.1 1.2,-1.1 0.5,0 1.2,0.31 1.5,1 0.1,0.21 0.5,1.75 0.7,2.62 z"
           id="path4038"
           inkscape:connector-curvature="0"
           style="fill:#000000;stroke-width:0" /></g>    </g>
    <g
       id="g4108"
       transform="matrix(0.3,0,0,0.3,-41.665739,555.52391)">
      <g
         word-spacing="normal"
         letter-spacing="normal"
         font-size-adjust="none"
         font-stretch="normal"
         font-weight="normal"
         font-variant="normal"
         font-style="normal"
         stroke-miterlimit="10.433"
         xml:space="preserve"
         transform="matrix(1.0629921,0,0,-1.0629921,-186.02362,789.27165)"
         id="g4110"
         style="font-style:normal;font-variant:normal;font-weight:normal;font-stretch:normal;letter-spacing:normal;word-spacing:normal;text-anchor:start;fill:none;stroke:#000000;stroke-width:3.33333325;stroke-linecap:butt;stroke-linejoin:miter;stroke-miterlimit:10.43299961;stroke-opacity:1;stroke-dasharray:none;stroke-dashoffset:0"><path
           id="path4112"
           d="m 1201.4,358.05 0,0.02 0.1,0.03 0,0.05 0,0.05 0,0.05 0,0.05 0.1,0.05 0,0.06 0,0.05 0,0.02 0,0.02 0,0.03 0,0.02 0,0.02 0,0.02 0.1,0.02 0,0.02 0,0.02 0,0.02 0,0.02 0,0.01 0,0.02 0,0.01 0,0.01 0,0.01 c 0,0.05 0,0.55 -0.6,0.55 -0.5,0 -0.6,-0.3 -0.7,-0.61 -3.2,-7.37 -5,-10.7 -13.6,-10.7 h -7.2 c -0.7,0 -0.8,0 -1.1,0.05 -0.5,0.04 -0.7,0.09 -0.7,0.5 0,0.14 0,0.25 0.3,1.14 l 3.4,13.61 h 4.9 c 4.2,0 4.2,-1.05 4.2,-2.3 0,-0.35 0,-0.95 -0.3,-2.44 -0.1,-0.25 -0.2,-0.41 -0.2,-0.55 0,-0.25 0.2,-0.54 0.7,-0.54 0.4,0 0.5,0.25 0.7,0.98 l 2.9,11.67 c 0,0.3 -0.3,0.55 -0.6,0.55 -0.5,0 -0.6,-0.3 -0.7,-0.91 -1.1,-3.78 -2,-4.92 -6.6,-4.92 h -4.7 l 3,12 c 0.5,1.75 0.5,1.94 2.7,1.94 h 7.1 c 6,0 7.5,-1.44 7.5,-5.53 0,-1.19 0,-1.28 -0.2,-2.64 0,-0.3 0,-0.64 0,-0.89 0,-0.25 0.1,-0.6 0.6,-0.6 0.5,0 0.6,0.3 0.7,1.25 l 1,8.61 c 0.1,1.35 -0.1,1.35 -1.4,1.35 h -25.1 c -1,0 -1.5,0 -1.5,-1 0,-0.55 0.4,-0.55 1.4,-0.55 1.8,0 3.2,0 3.2,-0.89 0,-0.2 0,-0.3 -0.2,-1.2 l -6.6,-26.35 c -0.5,-1.95 -0.6,-2.34 -4.6,-2.34 -0.8,0 -1.3,0 -1.3,-0.95 0,-0.6 0.4,-0.6 1.3,-0.6 h 25.9 c 1.2,0 1.2,0.05 1.5,0.85 z"
           inkscape:connector-curvature="0"
           style="fill:#000000;stroke-width:0" /><path
           id="path4114"
           d="m 1214.8,350.1 h 3.7 c 2.7,0 3.1,-0.42 3.1,-1.56 0,-0.54 0,-0.6 -0.2,-1.58 -0.1,-0.21 -0.1,-0.32 -0.1,-0.41 0,-0.36 0.2,-0.53 0.6,-0.53 0.4,0 0.5,0.17 0.6,0.8 l 1.9,7.39 c 0,0.11 0.2,0.62 0.2,0.7 0,0.34 -0.3,0.52 -0.6,0.52 -0.5,0 -0.6,-0.21 -0.7,-0.83 -0.7,-2.72 -1.7,-3.25 -4.7,-3.25 h -3.5 l 2.2,8.75 c 0.3,1.08 0.3,1.19 1.8,1.19 h 5.3 c 4.7,0 5.5,-1.11 5.5,-4.02 0,-1.14 -0.1,-1.88 -0.1,-2.16 0,-0.28 0.1,-0.59 0.6,-0.59 0.5,0 0.5,0.31 0.6,0.91 l 0.6,6.06 c 0.1,1.05 -0.1,1.05 -1,1.05 H 1212 c -0.7,0 -1.1,0 -1.1,-0.77 0,-0.48 0.4,-0.48 1.1,-0.48 0.1,0 0.7,0 1.3,-0.08 0.8,-0.07 0.8,-0.13 0.8,-0.49 0,-0.23 -0.1,-0.59 -0.1,-0.76 l -4.6,-18.22 c -0.3,-1.36 -0.3,-1.61 -3.1,-1.61 -0.6,0 -1,0 -1,-0.74 0,-0.34 0.2,-0.51 0.5,-0.51 1,0 3.6,0.14 4.6,0.14 l 2.7,-0.03 c 0.9,0 1.9,-0.11 2.8,-0.11 0.2,0 0.7,0 0.7,0.76 0,0.49 -0.4,0.49 -1.2,0.49 -0.1,0 -0.9,0 -1.8,0.08 -0.7,0.06 -1.1,0.09 -1.1,0.59 0,0.14 0,0.24 0.1,0.63 z"
           inkscape:connector-curvature="0"
           style="fill:#000000;stroke-width:0" /><path
           id="path4116"
           d="m 1241.4,346.82 0.1,0 0.1,0 0.1,0 0.2,0 0.1,0 0.1,0.01 0.2,0 0.1,0.01 0.2,0.01 0.2,0 0.1,0.01 0.2,0.02 0.2,0.01 0.2,0.01 0.4,0.04 0.4,0.04 0.4,0.05 0.4,0.06 0.4,0.07 0.4,0.08 0.2,0.04 0.2,0.05 0.2,0.05 0.2,0.05 0.1,0.06 0.2,0.06 c 2.6,0.91 3.1,2.58 3.1,3.63 0,1.92 -1.9,3.06 -4.3,3.06 v -0.97 c 1.5,0 2.8,-0.77 2.8,-2.09 0,-3.38 -5.9,-3.38 -7.4,-3.38 h -1.7 c 1.4,5.05 5.3,5.47 6.3,5.47 v 0.97 c -4.2,0 -9.9,-3.2 -9.9,-9.16 0,-3.51 2.2,-6.54 6.3,-6.54 5.9,0 8.6,3.43 8.6,3.93 0,0.21 -0.3,0.6 -0.6,0.6 -0.1,0 -0.2,-0.08 -0.5,-0.36 -2.7,-3.21 -6.8,-3.21 -7.4,-3.21 -2.1,0 -3.5,1.39 -3.5,4.22 0,0.49 0,1.19 0.4,3.1 z"
           inkscape:connector-curvature="0"
           style="fill:#000000;stroke-width:0" /><path
           id="path4118"
           d="m 1272.3,362.02 0,0 0,0.01 0,0 0,0.01 0,0 0,0.01 0,0 0.1,0.01 0,0.01 0,0 0,0.02 0,0.02 0,0.02 0,0.02 0,0.02 0,0.02 0,0.02 0,0.02 0,0.03 0,0.04 0,0.03 0,0.02 0,0.02 0,0.03 0,0.02 0,0.02 0.1,0.02 0,0.02 0,0.01 0,0.02 0,0.01 0,0 0,0.01 0,0.01 0,0 0,0.01 0,0 0,0.01 0,0 0,0 0,0 0,0.01 c 0,0.18 -0.2,0.5 -0.6,0.5 -0.7,0 -3.6,-0.28 -4.5,-0.36 -0.2,-0.03 -0.7,-0.07 -0.7,-0.8 0,-0.48 0.5,-0.48 0.9,-0.48 1.7,0 1.7,-0.25 1.7,-0.54 0,-0.23 -0.1,-0.45 -0.2,-0.76 l -2,-7.94 c -0.7,1.14 -1.9,2.05 -3.5,2.05 v -0.97 c 2.4,0 3.1,-2.64 3.1,-3.03 0,-0.14 -0.1,-0.39 -0.1,-0.49 l -1.7,-6.51 c -0.2,-0.99 -1,-1.67 -1.8,-2.35 -0.3,-0.26 -1.7,-1.39 -3.2,-1.39 -1.3,0 -2.5,0.91 -2.5,3.38 0,1.86 1,5.69 1.8,7.08 1.6,2.79 3.4,3.31 4.4,3.31 v 0.97 c -4.5,0 -9,-4.91 -9,-9.92 0,-3.38 2.2,-5.78 5.2,-5.78 1.9,0 3.6,1.07 5,2.43 0.6,-2.09 2.6,-2.43 3.6,-2.43 1.2,0 2.1,0.76 2.7,1.84 0.8,1.36 1.2,3.34 1.2,3.48 0,0.46 -0.4,0.46 -0.5,0.46 -0.5,0 -0.6,-0.14 -0.8,-1.08 -0.4,-1.67 -1.1,-3.74 -2.5,-3.74 -0.9,0 -1.2,0.77 -1.2,1.71 0,0.67 0.1,0.98 0.2,1.43 z"
           inkscape:connector-curvature="0"
           style="fill:#000000;stroke-width:0" /><path
           id="path4120"
           d="m 1281,346.82 0.1,0 0.1,0 0.1,0 0.2,0 0.1,0 0.1,0.01 0.2,0 0.1,0.01 0.2,0.01 0.2,0 0.1,0.01 0.2,0.02 0.2,0.01 0.2,0.01 0.4,0.04 0.4,0.04 0.4,0.05 0.4,0.06 0.4,0.07 0.4,0.08 0.2,0.04 0.2,0.05 0.2,0.05 0.2,0.05 0.1,0.06 0.2,0.06 c 2.6,0.91 3.1,2.58 3.1,3.63 0,1.92 -1.9,3.06 -4.4,3.06 v -0.97 c 1.6,0 2.9,-0.77 2.9,-2.09 0,-3.38 -5.9,-3.38 -7.4,-3.38 h -1.7 c 1.4,5.05 5.3,5.47 6.2,5.47 v 0.97 c -4.1,0 -9.8,-3.2 -9.8,-9.16 0,-3.51 2.2,-6.54 6.3,-6.54 5.9,0 8.6,3.43 8.6,3.93 0,0.21 -0.3,0.6 -0.6,0.6 -0.1,0 -0.2,-0.08 -0.5,-0.36 -2.7,-3.21 -6.8,-3.21 -7.4,-3.21 -2.1,0 -3.5,1.39 -3.5,4.22 0,0.49 0,1.19 0.4,3.1 z"
           inkscape:connector-curvature="0"
           style="fill:#000000;stroke-width:0" /><path
           id="path4122"
           d="m 1300.2,345.91 0,0.01 0,0.02 0,0.02 0,0.02 0,0.03 0,0.03 0.1,0.04 0,0.04 0,0.04 0,0.04 0,0.05 0,0.05 0,0.06 0,0.05 0.1,0.12 0,0.13 0,0.13 0.1,0.14 0,0.15 0,0.15 0.1,0.15 0.1,0.31 0,0.31 0.1,0.16 0,0.15 0.1,0.14 0,0.14 0,0.13 0.1,0.13 0,0.11 0,0.06 0,0.05 0,0.05 0.1,0.05 0,0.04 0,0.04 0,0.04 0,0.03 0,0.03 0,0.03 0,0.02 0,0.02 0,0.01 0,0.01 c 0.1,0.28 1.1,2.02 2.2,2.86 0.4,0.27 1.3,0.97 2.8,0.97 0.4,0 1.3,-0.03 2,-0.48 -1.2,-0.32 -1.6,-1.3 -1.6,-1.93 0,-0.76 0.6,-1.28 1.4,-1.28 0.8,0 2,0.66 2,2.13 0,1.81 -1.9,2.53 -3.7,2.53 -1.8,0 -3.4,-0.72 -4.9,-2.47 -0.7,2.12 -2.8,2.47 -3.6,2.47 -1.3,0 -2.2,-0.8 -2.7,-1.77 -0.8,-1.36 -1.3,-3.39 -1.3,-3.56 0,-0.45 0.5,-0.45 0.6,-0.45 0.5,0 0.5,0.11 0.7,1.04 0.6,2.13 1.2,3.77 2.6,3.77 0.9,0 1.1,-0.77 1.1,-1.7 0,-0.68 -0.3,-1.96 -0.5,-2.89 -0.3,-0.96 -0.6,-2.38 -0.8,-3.14 l -1.1,-4.47 c -0.2,-0.44 -0.4,-1.32 -0.4,-1.43 0,-0.76 0.7,-1.1 1.2,-1.1 0.5,0 1.2,0.31 1.5,1 0.1,0.21 0.5,1.75 0.7,2.62 z"
           inkscape:connector-curvature="0"
           style="fill:#000000;stroke-width:0" /></g>    </g>
  </g>
</svg>
