<?xml version="1.0" encoding="UTF-8" standalone="no"?>
<!-- Created with Inkscape (http://www.inkscape.org/) -->

<svg
   xmlns:osb="http://www.openswatchbook.org/uri/2009/osb"
   xmlns:dc="http://purl.org/dc/elements/1.1/"
   xmlns:cc="http://creativecommons.org/ns#"
   xmlns:rdf="http://www.w3.org/1999/02/22-rdf-syntax-ns#"
   xmlns:svg="http://www.w3.org/2000/svg"
   xmlns="http://www.w3.org/2000/svg"
   xmlns:sodipodi="http://sodipodi.sourceforge.net/DTD/sodipodi-0.dtd"
   xmlns:inkscape="http://www.inkscape.org/namespaces/inkscape"
   sodipodi:docname="bahnkurve.svg"
   inkscape:version="0.48.4 r9939"
   version="1.1"
   id="svg2"
   height="297mm"
   width="210mm">
  <sodipodi:namedview
     id="base"
     pagecolor="#ffffff"
     bordercolor="#666666"
     borderopacity="1.0"
     inkscape:pageopacity="0.0"
     inkscape:pageshadow="2"
     inkscape:zoom="2.8"
     inkscape:cx="340.61618"
     inkscape:cy="209.61546"
     inkscape:document-units="px"
     inkscape:current-layer="layer1"
     showgrid="true"
     inkscape:window-width="1278"
     inkscape:window-height="779"
     inkscape:window-x="0"
     inkscape:window-y="19"
     inkscape:window-maximized="1"
     inkscape:snap-bbox="true"
     inkscape:object-nodes="true"
     inkscape:snap-bbox-midpoints="true"
     inkscape:snap-nodes="true"
     inkscape:object-paths="true"
     inkscape:snap-intersection-paths="true"
     inkscape:snap-smooth-nodes="true"
     inkscape:snap-bbox-edge-midpoints="false"
     inkscape:bbox-nodes="false"
     inkscape:snap-midpoints="true"
     inkscape:snap-object-midpoints="true">
    <inkscape:grid
       type="xygrid"
       id="grid2985"
       empspacing="5"
       visible="true"
       enabled="true"
       snapvisiblegridlinesonly="true"
       units="mm"
       spacingx="1mm"
       spacingy="1mm" />
  </sodipodi:namedview>
  <defs
     id="defs4">
    <marker
       style="overflow:visible;"
       id="Arrow1Mend"
       refX="0.0"
       refY="0.0"
       orient="auto"
       inkscape:stockid="Arrow1Mend">
      <path
         transform="scale(0.4) rotate(180) translate(10,0)"
         style="fill-rule:evenodd;stroke:#000000;stroke-width:1.0pt;"
         d="M 0.0,0.0 L 5.0,-5.0 L -12.5,0.0 L 5.0,5.0 L 0.0,0.0 z "
         id="path4640" />
    </marker>
    <linearGradient
       id="linearGradient7099"
       osb:paint="solid">
      <stop
         style="stop-color:#000000;stop-opacity:1;"
         offset="0"
         id="stop7101" />
    </linearGradient>
    <marker
       inkscape:stockid="TriangleOutM"
       orient="auto"
       refY="0.0"
       refX="0.0"
       id="TriangleOutM"
       style="overflow:visible">
      <path
         id="path3958"
         d="M 5.77,0.0 L -2.88,5.0 L -2.88,-5.0 L 5.77,0.0 z "
         style="fill-rule:evenodd;stroke:#000000;stroke-width:1.0pt"
         transform="scale(0.4)" />
    </marker>
    <marker
       inkscape:stockid="TriangleInM"
       orient="auto"
       refY="0.0"
       refX="0.0"
       id="TriangleInM"
       style="overflow:visible">
      <path
         id="path3949"
         d="M 5.77,0.0 L -2.88,5.0 L -2.88,-5.0 L 5.77,0.0 z "
         style="fill-rule:evenodd;stroke:#000000;stroke-width:1.0pt"
         transform="scale(-0.4)" />
    </marker>
    <marker
       inkscape:stockid="TriangleInM"
       orient="auto"
       refY="0"
       refX="0"
       id="TriangleInM-8"
       style="overflow:visible">
      <path
         inkscape:connector-curvature="0"
         id="path3949-8"
         d="m 5.77,0 -8.65,5 0,-10 8.65,5 z"
         style="fill-rule:evenodd;stroke:#000000;stroke-width:1pt"
         transform="scale(-0.4,-0.4)" />
    </marker>
    <marker
       inkscape:stockid="TriangleOutM"
       orient="auto"
       refY="0"
       refX="0"
       id="TriangleOutM-7"
       style="overflow:visible">
      <path
         inkscape:connector-curvature="0"
         id="path3958-0"
         d="m 5.77,0 -8.65,5 0,-10 8.65,5 z"
         style="fill-rule:evenodd;stroke:#000000;stroke-width:1pt"
         transform="scale(0.4,0.4)" />
    </marker>
    <marker
       inkscape:stockid="TriangleOutM"
       orient="auto"
       refY="0"
       refX="0"
       id="TriangleOutM-7-0"
       style="overflow:visible">
      <path
         inkscape:connector-curvature="0"
         id="path3958-0-9"
         d="m 5.77,0 -8.65,5 0,-10 8.65,5 z"
         style="fill-rule:evenodd;stroke:#000000;stroke-width:1pt"
         transform="scale(0.4,0.4)" />
    </marker>
    <marker
       inkscape:stockid="TriangleOutM"
       orient="auto"
       refY="0"
       refX="0"
       id="TriangleOutM-7-0-8"
       style="overflow:visible">
      <path
         inkscape:connector-curvature="0"
         id="path3958-0-9-8"
         d="m 5.77,0 -8.65,5 0,-10 8.65,5 z"
         style="fill-rule:evenodd;stroke:#000000;stroke-width:1pt"
         transform="scale(0.4,0.4)" />
    </marker>
    <marker
       inkscape:stockid="TriangleOutM"
       orient="auto"
       refY="0"
       refX="0"
       id="marker4388"
       style="overflow:visible">
      <path
         inkscape:connector-curvature="0"
         id="path4390"
         d="m 5.77,0 -8.65,5 0,-10 8.65,5 z"
         style="fill-rule:evenodd;stroke:#000000;stroke-width:1pt"
         transform="scale(0.4,0.4)" />
    </marker>
    <marker
       inkscape:stockid="TriangleOutM"
       orient="auto"
       refY="0"
       refX="0"
       id="marker4392"
       style="overflow:visible">
      <path
         inkscape:connector-curvature="0"
         id="path4394"
         d="m 5.77,0 -8.65,5 0,-10 8.65,5 z"
         style="fill-rule:evenodd;stroke:#000000;stroke-width:1pt"
         transform="scale(0.4,0.4)" />
    </marker>
    <marker
       inkscape:stockid="TriangleOutM"
       orient="auto"
       refY="0"
       refX="0"
       id="TriangleOutM-7-0-85"
       style="overflow:visible">
      <path
         inkscape:connector-curvature="0"
         id="path3958-0-9-1"
         d="m 5.77,0 -8.65,5 0,-10 8.65,5 z"
         style="fill-rule:evenodd;stroke:#000000;stroke-width:1pt"
         transform="scale(0.4,0.4)" />
    </marker>
    <marker
       inkscape:stockid="TriangleOutM"
       orient="auto"
       refY="0"
       refX="0"
       id="marker4388-1"
       style="overflow:visible">
      <path
         inkscape:connector-curvature="0"
         id="path4390-9"
         d="m 5.77,0 -8.65,5 0,-10 8.65,5 z"
         style="fill-rule:evenodd;stroke:#000000;stroke-width:1pt"
         transform="scale(0.4,0.4)" />
    </marker>
    <marker
       inkscape:stockid="TriangleOutM"
       orient="auto"
       refY="0"
       refX="0"
       id="marker4392-2"
       style="overflow:visible">
      <path
         inkscape:connector-curvature="0"
         id="path4394-2"
         d="m 5.77,0 -8.65,5 0,-10 8.65,5 z"
         style="fill-rule:evenodd;stroke:#000000;stroke-width:1pt"
         transform="scale(0.4,0.4)" />
    </marker>
    <marker
       inkscape:stockid="TriangleOutM"
       orient="auto"
       refY="0"
       refX="0"
       id="TriangleOutM-7-0-3"
       style="overflow:visible">
      <path
         inkscape:connector-curvature="0"
         id="path3958-0-9-6"
         d="m 5.77,0 -8.65,5 0,-10 8.65,5 z"
         style="fill-rule:evenodd;stroke:#000000;stroke-width:1pt"
         transform="scale(0.4,0.4)" />
    </marker>
    <marker
       inkscape:stockid="TriangleOutM"
       orient="auto"
       refY="0"
       refX="0"
       id="marker4388-7"
       style="overflow:visible">
      <path
         inkscape:connector-curvature="0"
         id="path4390-3"
         d="m 5.77,0 -8.65,5 0,-10 8.65,5 z"
         style="fill-rule:evenodd;stroke:#000000;stroke-width:1pt"
         transform="scale(0.4,0.4)" />
    </marker>
    <marker
       inkscape:stockid="TriangleOutM"
       orient="auto"
       refY="0"
       refX="0"
       id="marker4392-7"
       style="overflow:visible">
      <path
         inkscape:connector-curvature="0"
         id="path4394-6"
         d="m 5.77,0 -8.65,5 0,-10 8.65,5 z"
         style="fill-rule:evenodd;stroke:#000000;stroke-width:1pt"
         transform="scale(0.4,0.4)" />
    </marker>
    <marker
       inkscape:stockid="TriangleOutM"
       orient="auto"
       refY="0"
       refX="0"
       id="TriangleOutM-7-0-0"
       style="overflow:visible">
      <path
         inkscape:connector-curvature="0"
         id="path3958-0-9-4"
         d="m 5.77,0 -8.65,5 0,-10 8.65,5 z"
         style="fill-rule:evenodd;stroke:#000000;stroke-width:1pt"
         transform="scale(0.4,0.4)" />
    </marker>
    <marker
       inkscape:stockid="TriangleOutM"
       orient="auto"
       refY="0"
       refX="0"
       id="marker4388-4"
       style="overflow:visible">
      <path
         inkscape:connector-curvature="0"
         id="path4390-5"
         d="m 5.77,0 -8.65,5 0,-10 8.65,5 z"
         style="fill-rule:evenodd;stroke:#000000;stroke-width:1pt"
         transform="scale(0.4,0.4)" />
    </marker>
    <marker
       inkscape:stockid="TriangleOutM"
       orient="auto"
       refY="0"
       refX="0"
       id="marker4392-26"
       style="overflow:visible">
      <path
         inkscape:connector-curvature="0"
         id="path4394-63"
         d="m 5.77,0 -8.65,5 0,-10 8.65,5 z"
         style="fill-rule:evenodd;stroke:#000000;stroke-width:1pt"
         transform="scale(0.4,0.4)" />
    </marker>
    <marker
       inkscape:stockid="TriangleOutM"
       orient="auto"
       refY="0"
       refX="0"
       id="TriangleOutM-7-0-89"
       style="overflow:visible">
      <path
         inkscape:connector-curvature="0"
         id="path3958-0-9-89"
         d="m 5.77,0 -8.65,5 0,-10 8.65,5 z"
         style="fill-rule:evenodd;stroke:#000000;stroke-width:1pt"
         transform="scale(0.4,0.4)" />
    </marker>
    <marker
       inkscape:stockid="TriangleOutM"
       orient="auto"
       refY="0"
       refX="0"
       id="TriangleOutM-7-0-1"
       style="overflow:visible">
      <path
         inkscape:connector-curvature="0"
         id="path3958-0-9-5"
         d="m 5.77,0 -8.65,5 0,-10 8.65,5 z"
         style="fill-rule:evenodd;stroke:#000000;stroke-width:1pt"
         transform="scale(0.4,0.4)" />
    </marker>
    <marker
       style="overflow:visible"
       id="Arrow1Mend-2"
       refX="0"
       refY="0"
       orient="auto"
       inkscape:stockid="Arrow1Mend">
      <path
         transform="matrix(-0.4,0,0,-0.4,-4,0)"
         style="fill-rule:evenodd;stroke:#000000;stroke-width:1pt"
         d="M 0,0 5,-5 -12.5,0 5,5 0,0 z"
         id="path4640-0"
         inkscape:connector-curvature="0" />
    </marker>
  </defs>
  <metadata
     id="metadata7">
    <rdf:RDF>
      <cc:Work
         rdf:about="">
        <dc:format>image/svg+xml</dc:format>
        <dc:type
           rdf:resource="http://purl.org/dc/dcmitype/StillImage" />
        <dc:title></dc:title>
      </cc:Work>
    </rdf:RDF>
  </metadata>
  <g
     inkscape:label="Ebene 1"
     inkscape:groupmode="layer"
     id="layer1">
    <path
       inkscape:connector-curvature="0"
       id="path3525"
       d="m 265.74803,804.33069 0,53.1496 177.16536,0"
       style="fill:none;stroke:#000000;stroke-width:1px;stroke-linecap:butt;stroke-linejoin:miter;stroke-opacity:1;marker-end:url(#Arrow1Mend)"
       sodipodi:nodetypes="ccc" />
    <path
       inkscape:connector-curvature="0"
       id="path5109"
       d="m 372.04724,822.04722 0,35.43307 35.43307,0 0,-35.43307 -35.43307,0"
       style="fill:none;stroke:#000000;stroke-width:1px;stroke-linecap:butt;stroke-linejoin:miter;stroke-opacity:1" />
    <path
       inkscape:connector-curvature="0"
       id="path5111"
       d="m 265.74803,839.76376 17.71654,0 3.5433,7.08661 7.08662,-14.17323 7.08661,14.17323 7.08662,-14.17323 7.08661,14.17323 7.08661,-14.17323 7.08662,14.17323 3.54331,-7.08661 3.5433,-7.08662 7.08662,14.17323 7.08661,-14.17323 3.54331,7.08662 17.71653,0"
       style="fill:none;stroke:#000000;stroke-width:1px;stroke-linecap:butt;stroke-linejoin:miter;stroke-opacity:1" />
    <g
       transform="matrix(0.3,0,0,0.3,52.864379,665.67381)"
       id="g5483">
      <g
         style="font-style:normal;font-variant:normal;font-weight:normal;font-stretch:normal;letter-spacing:normal;word-spacing:normal;text-anchor:start;fill:none;stroke:#000000;stroke-width:3.33333325;stroke-linecap:butt;stroke-linejoin:miter;stroke-miterlimit:10.43299961;stroke-opacity:1;stroke-dasharray:none;stroke-dashoffset:0"
         word-spacing="normal"
         letter-spacing="normal"
         font-size-adjust="none"
         font-stretch="normal"
         font-weight="normal"
         font-variant="normal"
         font-style="normal"
         stroke-miterlimit="10.433"
         xml:space="preserve"
         transform="matrix(1.0629921,0,0,-1.0629921,-186.02362,789.27165)"
         id="g5485"><path
           style="fill:#000000;stroke-width:0"
           inkscape:connector-curvature="0"
           id="path5487"
           d="m 1239.2,388.68 0,-0.06 -0.1,-0.07 -0.1,-0.07 -0.1,-0.07 -0.1,-0.08 0,-0.08 -0.1,-0.09 -0.1,-0.08 -0.1,-0.09 -0.1,-0.1 -0.2,-0.19 -0.2,-0.19 -0.2,-0.21 -0.1,-0.1 -0.1,-0.1 -0.1,-0.1 -0.1,-0.11 0,-0.1 -0.1,-0.1 -0.1,-0.1 0,-0.1 -0.1,-0.1 -0.1,-0.1 0,-0.1 0,-0.09 -0.1,-0.09 0,-0.1 0,-0.08 0,-0.09 c 0,-0.5 0.5,-1 1,-1 0.4,0 0.7,0.36 0.9,0.66 0.6,0.75 1.8,2.14 4,3.23 0.3,0.21 0.8,0.46 0.8,1.05 0,0.5 -0.3,0.75 -0.7,1 -1.1,0.75 -1.6,1.64 -2,2.83 -0.1,0.45 -0.3,1.11 -1,1.11 -0.7,0 -1,-0.66 -1,-1.05 0,-0.25 0.4,-1.84 1.2,-2.89 h -16.8 c -0.9,0 -1.8,0 -1.8,-1 0,-1 0.9,-1 1.8,-1 z" /><path
           style="fill:#000000;stroke-width:0"
           inkscape:connector-curvature="0"
           id="path5489"
           d="m 1220.2,362.63 h 4.9 c 3.7,0 4.1,-0.8 4.1,-2.24 0,-0.35 0,-0.95 -0.3,-2.43 -0.1,-0.25 -0.2,-0.46 -0.2,-0.57 0,-0.39 0.3,-0.59 0.6,-0.59 0.5,0 0.5,0.16 0.8,1.05 l 2.7,10.81 c 0.2,0.55 0.2,0.66 0.2,0.8 0,0.09 -0.1,0.54 -0.6,0.54 -0.5,0 -0.6,-0.25 -0.8,-1.04 -1,-3.88 -2.2,-4.78 -6.4,-4.78 h -4.5 l 3.1,12.65 c 0.5,1.75 0.5,1.94 2.7,1.94 h 6.6 c 6.1,0 7.3,-1.64 7.3,-5.47 0,-1.16 0,-1.34 -0.2,-2.7 -0.1,-0.64 -0.1,-0.74 -0.1,-0.89 0,-0.25 0.2,-0.6 0.6,-0.6 0.6,0 0.6,0.3 0.7,1.25 l 1,8.61 c 0.2,1.35 -0.1,1.35 -1.3,1.35 h -24.4 c -1,0 -1.5,0 -1.5,-1 0,-0.55 0.4,-0.55 1.4,-0.55 1.8,0 3.2,0 3.2,-0.89 0,-0.2 0,-0.3 -0.2,-1.2 l -6.6,-26.35 c -0.5,-1.95 -0.6,-2.34 -4.6,-2.34 -0.8,0 -1.3,0 -1.3,-0.95 0,-0.6 0.5,-0.6 0.7,-0.6 1.4,0 5.1,0.16 6.6,0.16 1.6,0 5.8,-0.16 7.4,-0.16 0.4,0 1,0 1,0.95 0,0.4 -0.2,0.49 -0.2,0.55 -0.2,0.05 -0.3,0.05 -1.4,0.05 -1.1,0 -1.4,0 -2.6,0.09 -1.5,0.16 -1.6,0.36 -1.6,1 0,0.1 0,0.41 0.2,1.14 z" /><path
           style="fill:#000000;stroke-width:0"
           inkscape:connector-curvature="0"
           id="path5491"
           d="m 1252.3,341.71 0,-0.07 0,-0.07 0,-0.07 0,-0.08 -0.1,-0.07 0,-0.08 0,-0.16 -0.1,-0.16 0,-0.16 0,-0.16 -0.1,-0.08 0,-0.07 0,-0.08 0,-0.07 0,-0.07 -0.1,-0.07 0,-0.07 0,-0.06 0,-0.06 0,-0.06 0,-0.05 0,-0.05 0,-0.05 0,-0.04 -0.1,-0.03 0,-0.03 0,-0.03 0,-0.02 c 0,-0.76 0.7,-1.1 1.2,-1.1 0.7,0 1.2,0.45 1.4,0.76 0.2,0.31 0.4,1.42 0.6,2.16 0.2,0.65 0.6,2.26 0.8,3.14 0.2,0.76 0.4,1.53 0.6,2.33 0.4,1.5 0.4,1.56 1,2.65 1.2,1.71 2.9,3.69 5.6,3.69 2,0 2.1,-1.61 2.1,-2.44 0,-2.09 -1.5,-5.95 -2.1,-7.42 -0.4,-0.98 -0.5,-1.3 -0.5,-1.89 0,-1.84 1.5,-2.98 3.3,-2.98 3.5,0 5,4.79 5,5.32 0,0.46 -0.4,0.46 -0.5,0.46 -0.5,0 -0.5,-0.21 -0.7,-0.6 -0.8,-2.78 -2.3,-4.22 -3.7,-4.22 -0.7,0 -0.9,0.49 -0.9,1.22 0,0.8 0.2,1.25 0.8,2.83 0.5,1.08 1.9,4.77 1.9,6.72 0,0.56 0,2.03 -1.3,3.03 -0.6,0.45 -1.6,0.94 -3.2,0.94 -3.2,0 -5.1,-2.05 -6.2,-3.52 -0.3,2.97 -2.8,3.52 -4.5,3.52 -2.9,0 -4.9,-1.77 -5.9,-3.16 -0.3,2.39 -2.3,3.16 -3.8,3.16 -1.5,0 -2.3,-1.08 -2.7,-1.88 -0.8,-1.28 -1.3,-3.28 -1.3,-3.45 0,-0.45 0.5,-0.45 0.6,-0.45 0.5,0 0.5,0.11 0.8,1.04 0.5,2.07 1.2,3.77 2.6,3.77 0.9,0 1.1,-0.77 1.1,-1.7 0,-0.68 -0.3,-1.96 -0.6,-2.89 -0.2,-0.96 -0.5,-2.38 -0.7,-3.14 l -1.2,-4.47 c -0.1,-0.44 -0.3,-1.32 -0.3,-1.43 0,-0.76 0.6,-1.1 1.2,-1.1 0.6,0 1.2,0.45 1.4,0.76 0.1,0.31 0.4,1.42 0.6,2.16 0.1,0.65 0.5,2.26 0.7,3.14 0.2,0.76 0.5,1.53 0.6,2.33 0.4,1.43 0.5,1.7 1.5,3.14 1,1.39 2.6,3.2 5.2,3.2 2,0 2.1,-1.78 2.1,-2.44 0,-0.87 -0.1,-1.33 -0.6,-3.28 z" /></g>    </g>
    <g
       transform="matrix(0.3,0,0,0.3,-20.138377,665.67381)"
       id="g5651">
      <g
         style="font-style:normal;font-variant:normal;font-weight:normal;font-stretch:normal;letter-spacing:normal;word-spacing:normal;text-anchor:start;fill:none;stroke:#000000;stroke-width:3.33333325;stroke-linecap:butt;stroke-linejoin:miter;stroke-miterlimit:10.43299961;stroke-opacity:1;stroke-dasharray:none;stroke-dashoffset:0"
         id="g5653"
         transform="matrix(1.0629921,0,0,-1.0629921,-186.02362,789.27165)"
         xml:space="preserve"
         stroke-miterlimit="10.433"
         font-style="normal"
         font-variant="normal"
         font-weight="normal"
         font-stretch="normal"
         font-size-adjust="none"
         letter-spacing="normal"
         word-spacing="normal"><path
           style="fill:#000000;stroke-width:0"
           inkscape:connector-curvature="0"
           d="m 1245.9,388.68 0,-0.06 -0.1,-0.07 -0.1,-0.07 0,-0.07 -0.1,-0.08 -0.1,-0.08 -0.1,-0.09 -0.1,-0.08 -0.1,-0.09 -0.1,-0.1 -0.2,-0.19 -0.2,-0.19 -0.2,-0.21 -0.1,-0.1 -0.1,-0.1 0,-0.1 -0.1,-0.11 -0.1,-0.1 -0.1,-0.1 -0.1,-0.1 0,-0.1 -0.1,-0.1 0,-0.1 -0.1,-0.1 0,-0.09 0,-0.09 -0.1,-0.1 0,-0.08 0,-0.09 c 0,-0.5 0.5,-1 1,-1 0.5,0 0.7,0.36 1,0.66 0.6,0.75 1.7,2.14 3.9,3.23 0.3,0.21 0.8,0.46 0.8,1.05 0,0.5 -0.3,0.75 -0.7,1 -1.1,0.75 -1.6,1.64 -2,2.83 -0.1,0.45 -0.3,1.11 -1,1.11 -0.7,0 -1,-0.66 -1,-1.05 0,-0.25 0.4,-1.84 1.2,-2.89 H 1230 c -0.8,0 -1.7,0 -1.7,-1 0,-1 0.9,-1 1.7,-1 z"
           id="path5655" /><path
           style="fill:#000000;stroke-width:0"
           inkscape:connector-curvature="0"
           d="m 1227,362.63 h 4.8 c 3.8,0 4.1,-0.8 4.1,-2.24 0,-0.35 0,-0.95 -0.3,-2.43 -0.1,-0.25 -0.2,-0.46 -0.2,-0.57 0,-0.39 0.3,-0.59 0.6,-0.59 0.5,0 0.5,0.16 0.8,1.05 l 2.7,10.81 c 0.2,0.55 0.2,0.66 0.2,0.8 0,0.09 -0.1,0.54 -0.6,0.54 -0.5,0 -0.6,-0.25 -0.8,-1.04 -1,-3.88 -2.2,-4.78 -6.4,-4.78 h -4.5 l 3.2,12.65 c 0.4,1.75 0.5,1.94 2.6,1.94 h 6.6 c 6.2,0 7.3,-1.64 7.3,-5.47 0,-1.16 0,-1.34 -0.1,-2.7 -0.2,-0.64 -0.2,-0.74 -0.2,-0.89 0,-0.25 0.2,-0.6 0.7,-0.6 0.5,0 0.6,0.3 0.6,1.25 l 1,8.61 c 0.2,1.35 0,1.35 -1.3,1.35 h -24.4 c -1,0 -1.5,0 -1.5,-1 0,-0.55 0.4,-0.55 1.4,-0.55 1.8,0 3.2,0 3.2,-0.89 0,-0.2 0,-0.3 -0.2,-1.2 l -6.6,-26.35 c -0.5,-1.95 -0.6,-2.34 -4.5,-2.34 -0.9,0 -1.4,0 -1.4,-0.95 0,-0.6 0.6,-0.6 0.7,-0.6 1.5,0 5.1,0.16 6.6,0.16 1.6,0 5.8,-0.16 7.4,-0.16 0.5,0 1.1,0 1.1,0.95 0,0.4 -0.3,0.49 -0.3,0.55 -0.2,0.05 -0.3,0.05 -1.4,0.05 -1.1,0 -1.4,0 -2.6,0.09 -1.5,0.16 -1.6,0.36 -1.6,1 0,0.1 0,0.41 0.2,1.14 z"
           id="path5657" /><path
           style="fill:#000000;stroke-width:0"
           inkscape:connector-curvature="0"
           d="m 1254.8,362.02 0,0 0,0.01 0,0 0,0.01 0,0 0,0.01 0,0 0,0.01 0,0.01 0,0 0.1,0.02 0,0.02 0,0.02 0,0.02 0,0.02 0,0.02 0,0.02 0,0.02 0,0.03 0,0.04 0,0.05 0,0.02 0,0.03 0,0.02 0,0.02 0,0.02 0.1,0.02 0,0.01 0,0.02 0,0.01 0,0 0,0.01 0,0.01 0,0 0,0.01 0,0 0,0.01 0,0 0,0 0,0 0,0.01 c 0,0.18 -0.2,0.5 -0.6,0.5 -0.7,0 -3.6,-0.28 -4.5,-0.36 -0.2,-0.03 -0.7,-0.07 -0.7,-0.8 0,-0.48 0.5,-0.48 0.9,-0.48 1.7,0 1.7,-0.25 1.7,-0.54 0,-0.23 -0.1,-0.45 -0.2,-0.76 l -4.9,-19.72 c -0.2,-0.62 -0.2,-0.69 -0.2,-0.77 0,-0.51 0.4,-1.1 1.2,-1.1 1,0 1.4,0.68 1.6,1.45 0.1,0.14 1.6,6.28 1.7,6.76 2.5,-0.25 4.5,-1.04 4.5,-2.86 0,-0.17 0,-0.34 -0.1,-0.68 -0.1,-0.53 -0.1,-0.71 -0.1,-1.1 0,-2.47 2,-3.57 3.7,-3.57 3.4,0 4.4,5.29 4.4,5.32 0,0.46 -0.5,0.46 -0.6,0.46 -0.4,0 -0.5,-0.18 -0.7,-0.85 -0.4,-1.5 -1.3,-3.97 -3,-3.97 -1,0 -1.2,0.88 -1.2,1.82 0,0.59 0,0.65 0.2,1.56 0,0.11 0.1,0.7 0.1,1.09 0,3.1 -4.1,3.58 -5.6,3.69 1,0.63 2.3,1.78 2.9,2.3 1.8,1.67 3.5,3.31 5.4,3.31 0.5,0 0.9,-0.11 1.2,-0.45 -1.5,-0.25 -1.8,-1.43 -1.8,-1.96 0,-0.76 0.6,-1.28 1.4,-1.28 0.9,0 2,0.77 2,2.22 0,1.16 -0.9,2.44 -2.7,2.44 -2,0 -3.8,-1.42 -5.6,-3.06 -1.5,-1.39 -2.6,-2.47 -4,-3.07 z"
           id="path5659" /></g>    </g>
    <g
       transform="matrix(0.3,0,0,0.3,50.105915,716.88452)"
       id="g5829">
      <g
         style="font-style:normal;font-variant:normal;font-weight:normal;font-stretch:normal;letter-spacing:normal;word-spacing:normal;text-anchor:start;fill:none;stroke:#000000;stroke-width:3.33333325;stroke-linecap:butt;stroke-linejoin:miter;stroke-miterlimit:10.43299961;stroke-opacity:1;stroke-dasharray:none;stroke-dashoffset:0"
         word-spacing="normal"
         letter-spacing="normal"
         font-size-adjust="none"
         font-stretch="normal"
         font-weight="normal"
         font-variant="normal"
         font-style="normal"
         stroke-miterlimit="10.433"
         xml:space="preserve"
         transform="matrix(1.0629921,0,0,-1.0629921,-186.02362,789.27165)"
         id="g5831"><path
           style="fill:#000000;stroke-width:0"
           inkscape:connector-curvature="0"
           id="path5833"
           d="m 1222.6,349.38 0,-0.07 0,-0.08 0,-0.07 0,-0.08 -0.1,-0.16 0,-0.16 0,-0.16 -0.1,-0.16 0,-0.16 -0.1,-0.16 0,-0.08 0,-0.07 0,-0.07 0,-0.07 0,-0.07 0,-0.07 -0.1,-0.06 0,-0.06 0,-0.05 0,-0.06 0,-0.04 0,-0.05 0,-0.04 0,-0.03 0,-0.04 0,-0.02 c 0,-0.89 0.7,-1.35 1.4,-1.35 0.6,0 1.5,0.4 1.9,1.4 0,0.1 0.6,2.43 0.9,3.68 l 1.1,4.49 c 0.3,1.09 0.6,2.18 0.8,3.34 0.3,0.84 0.7,2.28 0.7,2.49 0.8,1.54 3.4,6.07 8.1,6.07 2.3,0 2.7,-1.84 2.7,-3.48 0,-1.25 -0.3,-2.64 -0.7,-4.14 l -1.4,-5.78 -1,-3.78 c -0.2,-1 -0.7,-2.69 -0.7,-2.94 0,-0.89 0.7,-1.35 1.5,-1.35 1.5,0 1.8,1.25 2.2,2.85 0.7,2.78 2.5,10.06 3,12 0.1,0.65 2.8,6.62 8.2,6.62 2.2,0 2.7,-1.68 2.7,-3.48 0,-2.84 -2.1,-8.52 -3.1,-11.16 -0.4,-1.2 -0.6,-1.75 -0.6,-2.75 0,-2.33 1.7,-4.08 4.1,-4.08 4.6,0 6.5,7.27 6.5,7.68 0,0.5 -0.5,0.5 -0.6,0.5 -0.5,0 -0.5,-0.16 -0.8,-0.91 -0.7,-2.64 -2.3,-6.17 -5,-6.17 -0.9,0 -1.2,0.5 -1.2,1.64 0,1.25 0.4,2.45 0.9,3.55 0.9,2.57 3,8.11 3,10.95 0,3.23 -2,5.33 -5.7,5.33 -3.8,0 -6.3,-2.19 -8.1,-4.83 -0.1,0.66 -0.2,2.34 -1.7,3.53 -1.2,1.05 -2.8,1.3 -4,1.3 -4.5,0 -7,-3.19 -7.8,-4.33 -0.3,2.84 -2.3,4.33 -4.6,4.33 -2.3,0 -3.2,-1.94 -3.7,-2.83 -0.9,-1.75 -1.5,-4.69 -1.5,-4.84 0,-0.5 0.5,-0.5 0.6,-0.5 0.5,0 0.5,0.06 0.8,1.15 0.9,3.53 1.9,5.92 3.7,5.92 0.8,0 1.5,-0.39 1.5,-2.28 0,-1.04 -0.1,-1.61 -0.8,-4.19 z" /></g>    </g>
    <g
       transform="matrix(0.3,0,0,0.3,-19.165739,699.38324)"
       id="g6009">
      <g
         style="font-style:normal;font-variant:normal;font-weight:normal;font-stretch:normal;letter-spacing:normal;word-spacing:normal;text-anchor:start;fill:none;stroke:#000000;stroke-width:3.33333325;stroke-linecap:butt;stroke-linejoin:miter;stroke-miterlimit:10.43299961;stroke-opacity:1;stroke-dasharray:none;stroke-dashoffset:0"
         id="g6011"
         transform="matrix(1.0629921,0,0,-1.0629921,-186.02362,789.27165)"
         xml:space="preserve"
         stroke-miterlimit="10.433"
         font-style="normal"
         font-variant="normal"
         font-weight="normal"
         font-stretch="normal"
         font-size-adjust="none"
         letter-spacing="normal"
         word-spacing="normal"><path
           style="fill:#000000;stroke-width:0"
           inkscape:connector-curvature="0"
           d="m 1240.7,380.47 0,0.01 0,0 0,0.01 0,0.01 0,0.01 0,0.01 0,0.02 0,0.02 0,0.02 0,0.02 0,0.02 0,0.02 0,0.03 0,0.02 -0.1,0.02 0,0.03 0,0.02 0,0.03 0,0.02 0,0.03 -0.1,0.02 0,0.01 0,0.01 0,0.01 0,0.01 0,0.01 0,0.01 -0.1,0.01 0,0.01 0,0.01 0,0.01 0,0.01 0,0 -0.1,0.01 0,0.01 0,0 0,0.01 -0.1,0 0,0.01 0,0 0,0 -0.1,0.01 0,0 0,0 0,0 c -1.2,0 -4.8,-0.41 -6.1,-0.5 -0.4,-0.05 -1,-0.09 -1,-1 0,-0.59 0.5,-0.59 1.2,-0.59 2.4,0 2.5,-0.35 2.5,-0.85 l -0.1,-1 -7.3,-28.7 c -0.2,-0.69 -0.2,-0.8 -0.2,-1.09 0,-1.15 1,-1.4 1.5,-1.4 0.6,0 1.4,0.46 1.7,1.05 0.2,0.45 2.5,9.66 2.8,10.91 1.7,-0.14 5.7,-0.94 5.7,-4.24 0,-0.34 0,-0.54 -0.1,-1.04 -0.1,-0.6 -0.2,-1.19 -0.2,-1.74 0,-2.95 2,-4.94 4.6,-4.94 1.5,0 2.8,0.8 3.9,2.65 1.3,2.18 1.8,4.93 1.8,5.03 0,0.5 -0.4,0.5 -0.6,0.5 -0.5,0 -0.5,-0.21 -0.7,-0.91 -1,-3.62 -2.1,-6.17 -4.3,-6.17 -1,0 -1.6,0.55 -1.6,2.34 0,0.85 0.2,1.99 0.4,2.78 0.2,0.86 0.2,1.05 0.2,1.55 0,3.25 -3.2,4.69 -7.4,5.23 1.5,0.91 3.1,2.5 4.3,3.69 2.4,2.64 4.7,4.78 7.1,4.78 0.3,0 0.4,0 0.5,-0.04 0.6,-0.1 0.6,-0.1 1,-0.39 0.1,-0.07 0.1,-0.11 0.2,-0.21 -2.4,-0.15 -2.8,-2.09 -2.8,-2.68 0,-0.8 0.5,-1.75 1.9,-1.75 1.3,0 2.7,1.09 2.7,3.03 0,1.5 -1.1,3.14 -3.4,3.14 -1.4,0 -3.7,-0.39 -7.3,-4.38 -1.7,-1.89 -3.6,-3.89 -5.5,-4.64 z"
           id="path6013" /></g>    </g>
    <path
       inkscape:connector-curvature="0"
       id="path6104"
       d="m 407.48031,804.33069 -35.43307,0"
       style="fill:none;stroke:#000000;stroke-width:1px;stroke-linecap:butt;stroke-linejoin:miter;stroke-opacity:1;marker-end:url(#Arrow1Mend)" />
    <path
       inkscape:connector-curvature="0"
       id="path6104-3"
       d="m 301.1811,804.33069 35.43307,0"
       style="fill:none;stroke:#000000;stroke-width:1px;stroke-linecap:butt;stroke-linejoin:miter;stroke-opacity:1;marker-end:url(#Arrow1Mend)" />
    <g
       id="g6486"
       transform="matrix(0.3,0,0,0.3,113.98111,734.60106)">
      <g
         word-spacing="normal"
         letter-spacing="normal"
         font-size-adjust="none"
         font-stretch="normal"
         font-weight="normal"
         font-variant="normal"
         font-style="normal"
         stroke-miterlimit="10.433"
         xml:space="preserve"
         transform="matrix(1.0629921,0,0,-1.0629921,-186.02362,789.27165)"
         id="content"
         style="font-style:normal;font-variant:normal;font-weight:normal;font-stretch:normal;letter-spacing:normal;word-spacing:normal;text-anchor:start;fill:none;stroke:#000000;stroke-width:3.33333325;stroke-linecap:butt;stroke-linejoin:miter;stroke-miterlimit:10.43299961;stroke-opacity:1;stroke-dasharray:none;stroke-dashoffset:0"><path
           id="path6489"
           d="m 1242.6,361.49 0,0.13 0,0.15 0.1,0.16 0,0.18 0.1,0.2 0,0.2 0.1,0.22 0.1,0.22 0,0.24 0.1,0.24 0.1,0.24 0.1,0.25 0.1,0.25 0.2,0.25 0.1,0.25 0.1,0.24 0.2,0.24 0.1,0.24 0.2,0.23 0.2,0.23 0.2,0.21 0.2,0.2 0.2,0.19 0.2,0.18 0.2,0.16 0.3,0.14 0.1,0.07 0.1,0.06 0.2,0.05 0.1,0.05 0.1,0.05 0.2,0.04 0.1,0.03 0.2,0.03 0.1,0.02 0.2,0.02 0.1,0.01 0.2,0 c 0.3,0 1.4,0 2.5,-0.64 -1.4,-0.25 -2.4,-1.5 -2.4,-2.68 0,-0.8 0.5,-1.75 1.9,-1.75 1.1,0 2.7,0.89 2.7,2.89 0,2.59 -3,3.28 -4.6,3.28 -2.9,0 -4.7,-2.64 -5.3,-3.78 -1.2,3.28 -3.9,3.78 -5.4,3.78 -5.1,0 -8,-6.42 -8,-7.67 0,-0.5 0.5,-0.5 0.6,-0.5 0.4,0 0.6,0.1 0.7,0.54 1.6,5.28 4.9,6.53 6.6,6.53 1,0 2.7,-0.43 2.7,-3.32 0,-1.55 -0.8,-4.9 -2.7,-11.86 -0.8,-3.1 -2.5,-5.19 -4.7,-5.19 -0.3,0 -1.4,0 -2.5,0.65 1.3,0.24 2.3,1.29 2.3,2.69 0,1.35 -1,1.74 -1.8,1.74 -1.5,0 -2.7,-1.3 -2.7,-2.89 0,-2.29 2.5,-3.29 4.7,-3.29 3.2,0 5,3.49 5.2,3.79 0.6,-1.85 2.4,-3.79 5.4,-3.79 5.1,0 7.9,6.43 7.9,7.68 0,0.5 -0.4,0.5 -0.6,0.5 -0.4,0 -0.5,-0.21 -0.6,-0.55 -1.6,-5.33 -5,-6.53 -6.6,-6.53 -2,0 -2.8,1.59 -2.8,3.3 0,1.09 0.3,2.18 0.9,4.37 z"
           inkscape:connector-curvature="0"
           style="fill:#000000;stroke-width:0" /></g>    </g>
  </g>
</svg>
